<svg width="1080" height="1440" viewBox="0 0 1080 1440" fill="none" xmlns="http://www.w3.org/2000/svg">
  <defs>
    <linearGradient id="bg" x1="112" y1="72" x2="1008" y2="1394" gradientUnits="userSpaceOnUse">
      <stop offset="0" stop-color="#F8FCFF"/>
      <stop offset="0.3" stop-color="#EEF6FD"/>
      <stop offset="0.72" stop-color="#D8E9F6"/>
      <stop offset="1" stop-color="#C6DCEC"/>
    </linearGradient>
    <radialGradient id="haloTop" cx="0" cy="0" r="1" gradientUnits="userSpaceOnUse" gradientTransform="translate(408 260) rotate(34.2) scale(466 404)">
      <stop offset="0" stop-color="#FFFFFF"/>
      <stop offset="0.48" stop-color="#F7FBFF" stop-opacity="0.92"/>
      <stop offset="1" stop-color="#F7FBFF" stop-opacity="0"/>
    </radialGradient>
    <radialGradient id="haloBottom" cx="0" cy="0" r="1" gradientUnits="userSpaceOnUse" gradientTransform="translate(700 924) rotate(121.2) scale(532 654)">
      <stop offset="0" stop-color="#9FEAFF" stop-opacity="0.62"/>
      <stop offset="0.56" stop-color="#65BDE9" stop-opacity="0.24"/>
      <stop offset="1" stop-color="#D7E8F5" stop-opacity="0"/>
    </radialGradient>
    <linearGradient id="glassA" x1="0" y1="0" x2="1" y2="1">
      <stop offset="0" stop-color="#FFFFFF" stop-opacity="0.86"/>
      <stop offset="0.44" stop-color="#D7F0FF" stop-opacity="0.42"/>
      <stop offset="1" stop-color="#5B93BD" stop-opacity="0.34"/>
    </linearGradient>
    <linearGradient id="glassB" x1="0" y1="0" x2="0.92" y2="1">
      <stop offset="0" stop-color="#FFFFFF" stop-opacity="0.72"/>
      <stop offset="0.38" stop-color="#BDE8FF" stop-opacity="0.28"/>
      <stop offset="1" stop-color="#427DA7" stop-opacity="0.34"/>
    </linearGradient>
    <linearGradient id="metal" x1="0" y1="0" x2="1" y2="0">
      <stop offset="0" stop-color="#FAFDFF"/>
      <stop offset="0.5" stop-color="#C4D4DF"/>
      <stop offset="1" stop-color="#EDF6FC"/>
    </linearGradient>
    <linearGradient id="beam" x1="0" y1="0" x2="1" y2="0">
      <stop offset="0" stop-color="#FFFFFF" stop-opacity="0"/>
      <stop offset="0.48" stop-color="#FFFFFF" stop-opacity="0.88"/>
      <stop offset="1" stop-color="#9BEAFF" stop-opacity="0"/>
    </linearGradient>
    <filter id="blur24" x="-160" y="-160" width="1400" height="1760" filterUnits="userSpaceOnUse" color-interpolation-filters="sRGB">
      <feGaussianBlur stdDeviation="24"/>
    </filter>
    <filter id="blur54" x="-220" y="-220" width="1520" height="1880" filterUnits="userSpaceOnUse" color-interpolation-filters="sRGB">
      <feGaussianBlur stdDeviation="54"/>
    </filter>
  </defs>

  <rect width="1080" height="1440" fill="url(#bg)"/>
  <rect width="1080" height="1440" fill="url(#haloTop)"/>
  <rect width="1080" height="1440" fill="url(#haloBottom)"/>

  <g opacity="0.68" filter="url(#blur54)">
    <ellipse cx="652" cy="1170" rx="266" ry="110" fill="#A8D9F1"/>
    <ellipse cx="498" cy="1214" rx="198" ry="64" fill="#FFFFFF"/>
  </g>

  <g opacity="0.26">
    <path d="M366 140L1046 40" stroke="#F8FCFF" stroke-width="6"/>
    <path d="M286 278L1056 162" stroke="#DCECF7" stroke-width="3.4"/>
    <path d="M248 424L1068 286" stroke="#D2E4F2" stroke-width="2.6"/>
  </g>

  <g opacity="0.84">
    <polygon points="290,182 610,124 734,1246 402,1292" fill="url(#glassA)"/>
    <polygon points="526,144 850,100 940,1188 626,1238" fill="url(#glassB)"/>
    <polygon points="690,128 992,88 1060,1082 768,1132" fill="url(#glassA)"/>
    <polygon points="402,334 734,286 824,1094 492,1142" fill="url(#glassB)" opacity="0.72"/>
  </g>

  <g opacity="0.92">
    <path d="M290 182L610 124" stroke="url(#metal)" stroke-width="7"/>
    <path d="M402 1292L734 1246" stroke="url(#metal)" stroke-width="7"/>
    <path d="M290 182L402 1292" stroke="url(#metal)" stroke-width="8"/>
    <path d="M610 124L734 1246" stroke="url(#metal)" stroke-width="8"/>

    <path d="M526 144L850 100" stroke="url(#metal)" stroke-width="6"/>
    <path d="M626 1238L940 1188" stroke="url(#metal)" stroke-width="6"/>
    <path d="M526 144L626 1238" stroke="url(#metal)" stroke-width="7"/>
    <path d="M850 100L940 1188" stroke="url(#metal)" stroke-width="7"/>

    <path d="M690 128L992 88" stroke="url(#metal)" stroke-width="5.6"/>
    <path d="M768 1132L1060 1082" stroke="url(#metal)" stroke-width="5.6"/>
    <path d="M690 128L768 1132" stroke="url(#metal)" stroke-width="6.4"/>
    <path d="M992 88L1060 1082" stroke="url(#metal)" stroke-width="6.4"/>
  </g>

  <g opacity="0.7">
    <path d="M340 246L648 194" stroke="#FFFFFF" stroke-opacity="0.8" stroke-width="2.6"/>
    <path d="M366 430L672 382" stroke="#FFFFFF" stroke-opacity="0.62" stroke-width="2.1"/>
    <path d="M394 624L696 578" stroke="#E0F8FF" stroke-opacity="0.58" stroke-width="1.8"/>
    <path d="M420 826L720 782" stroke="#FFFFFF" stroke-opacity="0.48" stroke-width="1.6"/>
    <path d="M446 1032L744 990" stroke="#E8FBFF" stroke-opacity="0.44" stroke-width="1.5"/>

    <path d="M562 212L868 170" stroke="#FFFFFF" stroke-opacity="0.72" stroke-width="2.3"/>
    <path d="M586 424L890 386" stroke="#DDF8FF" stroke-opacity="0.54" stroke-width="1.8"/>
    <path d="M610 646L912 610" stroke="#FFFFFF" stroke-opacity="0.42" stroke-width="1.5"/>
    <path d="M632 868L934 834" stroke="#D2F3FF" stroke-opacity="0.36" stroke-width="1.3"/>
  </g>

  <g filter="url(#blur24)" opacity="0.64">
    <path d="M370 262C544 308 660 308 816 258" stroke="url(#beam)" stroke-width="30" stroke-linecap="round"/>
    <path d="M470 478C646 520 772 520 926 470" stroke="url(#beam)" stroke-width="24" stroke-linecap="round"/>
    <path d="M566 698C730 734 842 734 984 690" stroke="url(#beam)" stroke-width="18" stroke-linecap="round"/>
  </g>

  <g opacity="0.22">
    <circle cx="818" cy="214" r="9" fill="#FFFFFF"/>
    <circle cx="880" cy="312" r="11" fill="#FFFFFF"/>
    <circle cx="930" cy="474" r="8" fill="#9CEBFF"/>
  </g>
</svg>
